<?xml version="1.0" encoding="UTF-8" standalone="no"?>
<!-- Created with Inkscape (http://www.inkscape.org/) -->

<svg
   width="255.99988"
   height="255.99998"
   viewBox="0 0 67.733299 67.733329"
   version="1.1"
   id="svg1"
   xml:space="preserve"
   sodipodi:docname="icon.svg"
   xmlns:inkscape="http://www.inkscape.org/namespaces/inkscape"
   xmlns:sodipodi="http://sodipodi.sourceforge.net/DTD/sodipodi-0.dtd"
   xmlns="http://www.w3.org/2000/svg"
   xmlns:svg="http://www.w3.org/2000/svg"><sodipodi:namedview
     id="namedview1"
     pagecolor="#ffffff"
     bordercolor="#000000"
     borderopacity="0.25"
     inkscape:showpageshadow="2"
     inkscape:pageopacity="0.0"
     inkscape:pagecheckerboard="0"
     inkscape:deskcolor="#d1d1d1"
     inkscape:document-units="px"
     showborder="false"><inkscape:page
       x="0"
       y="0"
       width="67.733299"
       height="67.73333"
       id="page1"
       margin="0"
       bleed="0" /></sodipodi:namedview><defs
     id="defs1" /><g
     inkscape:label="Layer 1"
     inkscape:groupmode="layer"
     id="layer1"
     transform="translate(-313.0763,-136.38338)"><g
       inkscape:label="Layer 1"
       id="layer1-4"
       transform="translate(257.67732,32.25383)"
       style="fill:#003399;fill-opacity:1"><rect
         style="fill:#003399;fill-opacity:1;stroke-width:1.10728;stroke-dasharray:1.10728, 1.10728"
         id="rect2"
         width="67.73333"
         height="67.73333"
         x="55.398964"
         y="104.12954"
         ry="60.634624"
         inkscape:export-filename="font-changer\images\icon.png"
         inkscape:export-xdpi="96"
         inkscape:export-ydpi="96" /></g><path
       d="m 334.35099,185.12653 9.38615,-9.38612 c 1.07139,0.28612 2.26176,0.009 3.10211,-0.83151 1.2541,-1.25411 1.2541,-3.28723 0,-4.54118 -1.25394,-1.2541 -3.28707,-1.2541 -4.54114,0 -0.84045,0.84035 -1.11762,2.03072 -0.83154,3.10211 l -9.3862,9.38612 -1.70295,-1.70286 c 4.54122,-5.2982 6.24418,-11.1638 8.51478,-21.00317 l 10.21779,-1.13531 9.08251,9.08252 -1.13545,10.21764 c -9.83921,2.27059 -15.70502,3.97361 -21.0031,8.51478 z m 18.73245,-31.22078 10.18987,10.18988 c 0.31356,0.3135 0.31356,0.82179 0,1.13528 -0.12026,0.12028 -0.27552,0.19924 -0.44362,0.22551 l -2.36676,0.37002 -9.08235,-9.08243 0.34054,-2.38414 c 0.0628,-0.4389 0.46931,-0.74388 0.90827,-0.68118 0.17196,0.0246 0.33123,0.10424 0.45405,0.22706 z"
       id="path1"
       style="fill:#ffffff;stroke-width:1.60556" /></g></svg>
